<svg xmlns="http://www.w3.org/2000/svg" xmlns:xlink="http://www.w3.org/1999/xlink" contentStyleType="text/css" height="669px" preserveAspectRatio="none" style="width:1015px;height:669px;background:#FFFFFF;" version="1.1" viewBox="0 0 1015 669" width="1015px" zoomAndPan="magnify"><!-- GENERATED from cat-harness/uml/overview/cat-harness/scenarios.puml by cat-harness/scripts/gen-uml-overview.ts (PlantUML 1.2024.7) --><!-- puml-sha256: 61961ca23db4098ab588ad9435aac5a78d6cc091725e1fc97a21c0bd8c19faf0 --><defs/><g><rect fill="#FFFFFF" height="646.375" rx="2.5" ry="2.5" style="stroke:#000000;stroke-width:1.0;" width="992.2002" x="17" y="17"/><text fill="#000000" font-family="Verdana" font-size="14" font-style="italic" lengthAdjust="spacing" textLength="83.6924" x="471.2539" y="31.9951">&#171;scenarios&#187;</text><text fill="#000000" font-family="Verdana" font-size="14" font-weight="bold" lengthAdjust="spacing" textLength="173.0039" x="426.5981" y="48.292">cat-harness/scenarios</text><!--class cat_harness_scenarios_FormerName--><g id="elem_cat_harness_scenarios_FormerName"><rect codeLine="11" fill="#E8F0EE" height="80.8594" id="cat_harness_scenarios_FormerName" rx="2.5" ry="2.5" style="stroke:#000000;stroke-width:1.0;" width="182.5254" x="691.9243" y="567.5156"/><ellipse cx="704.9243" cy="587.6484" fill="#FFFFFF" rx="9" ry="9" style="stroke:#000000;stroke-width:1.0;"/><path d="M707.8931,593.2891 Q707.3149,593.5859 706.6743,593.7266 Q706.0337,593.8828 705.3306,593.8828 Q702.8306,593.8828 701.5024,592.2422 Q700.1899,590.5859 700.1899,587.4609 Q700.1899,584.3359 701.5024,582.6797 Q702.8306,581.0234 705.3306,581.0234 Q706.0337,581.0234 706.6743,581.1797 Q707.3306,581.3359 707.8931,581.6328 L707.8931,584.3516 Q707.2681,583.7734 706.6743,583.5078 Q706.0806,583.2266 705.4556,583.2266 Q704.1118,583.2266 703.4243,584.3047 Q702.7368,585.3672 702.7368,587.4609 Q702.7368,589.5547 703.4243,590.6328 Q704.1118,591.6953 705.4556,591.6953 Q706.0806,591.6953 706.6743,591.4297 Q707.2681,591.1484 707.8931,590.5703 L707.8931,593.2891 Z " fill="#000000"/><text fill="#000000" font-family="Verdana" font-size="12" font-style="italic" lengthAdjust="spacing" textLength="158.5254" x="714.9243" y="583.6543">&#171;json: RoleGraphSchema&#187;</text><text fill="#000000" font-family="Verdana" font-size="14" lengthAdjust="spacing" textLength="91.6836" x="748.3452" y="599.4795">FormerName</text><line style="stroke:#000000;stroke-width:1.0;" x1="692.9243" x2="873.4497" y1="607.7813" y2="607.7813"/><text fill="#000000" font-family="Verdana" font-size="14" lengthAdjust="spacing" textLength="117.79" x="697.9243" y="624.7764">name [1] : string</text><text fill="#000000" font-family="Verdana" font-size="14" lengthAdjust="spacing" textLength="144.9834" x="697.9243" y="641.0732">retiredOn [1] : string</text></g><!--class cat_harness_scenarios_Role--><g id="elem_cat_harness_scenarios_Role"><rect codeLine="15" fill="#E8F0EE" height="227.5313" id="cat_harness_scenarios_Role" rx="2.5" ry="2.5" style="stroke:#000000;stroke-width:1.0;" width="422.0264" x="572.1738" y="263.7188"/><ellipse cx="702.1743" cy="283.8516" fill="#FFFFFF" rx="9" ry="9" style="stroke:#000000;stroke-width:1.0;"/><path d="M705.1431,289.4922 Q704.5649,289.7891 703.9243,289.9297 Q703.2837,290.0859 702.5806,290.0859 Q700.0806,290.0859 698.7524,288.4453 Q697.4399,286.7891 697.4399,283.6641 Q697.4399,280.5391 698.7524,278.8828 Q700.0806,277.2266 702.5806,277.2266 Q703.2837,277.2266 703.9243,277.3828 Q704.5806,277.5391 705.1431,277.8359 L705.1431,280.5547 Q704.5181,279.9766 703.9243,279.7109 Q703.3306,279.4297 702.7056,279.4297 Q701.3618,279.4297 700.6743,280.5078 Q699.9868,281.5703 699.9868,283.6641 Q699.9868,285.7578 700.6743,286.8359 Q701.3618,287.8984 702.7056,287.8984 Q703.3306,287.8984 703.9243,287.6328 Q704.5181,287.3516 705.1431,286.7734 L705.1431,289.4922 Z " fill="#000000"/><text fill="#000000" font-family="Verdana" font-size="12" font-style="italic" lengthAdjust="spacing" textLength="158.5254" x="717.6743" y="279.8574">&#171;json: RoleGraphSchema&#187;</text><text fill="#000000" font-family="Verdana" font-size="14" lengthAdjust="spacing" textLength="30.7959" x="781.5391" y="295.6826">Role</text><line style="stroke:#000000;stroke-width:1.0;" x1="573.1738" x2="993.2002" y1="303.9844" y2="303.9844"/><text fill="#000000" font-family="Verdana" font-size="14" lengthAdjust="spacing" textLength="152.4619" x="578.1738" y="320.9795">persona [0..1] : string</text><text fill="#000000" font-family="Verdana" font-size="14" lengthAdjust="spacing" textLength="90.8633" x="578.1738" y="337.2764">id [1] : string</text><text fill="#000000" font-family="Verdana" font-size="14" lengthAdjust="spacing" textLength="105.458" x="578.1738" y="353.5732">title [1] : string</text><text fill="#000000" font-family="Verdana" font-size="14" lengthAdjust="spacing" textLength="155.9277" x="578.1738" y="369.8701">description [1] : string</text><text fill="#000000" font-family="Verdana" font-size="14" lengthAdjust="spacing" textLength="410.0264" x="578.1738" y="386.167">actorKinds [1..*] : list&lt;person | agent | system | external&gt;</text><text fill="#000000" font-family="Verdana" font-size="14" lengthAdjust="spacing" textLength="190.8047" x="578.1738" y="402.4639">otherNames [0..*] : string[]</text><text fill="#000000" font-family="Verdana" font-size="14" lengthAdjust="spacing" textLength="252.2598" x="578.1738" y="418.7607">formerNames [0..*] : FormerName[]</text><text fill="#000000" font-family="Verdana" font-size="14" lengthAdjust="spacing" textLength="139.2754" x="578.1738" y="435.0576">skills [0..*] : string[]</text><text fill="#000000" font-family="Verdana" font-size="14" lengthAdjust="spacing" textLength="157.5889" x="578.1738" y="451.3545">inherits [0..*] : string[]</text><text fill="#000000" font-family="Verdana" font-size="14" lengthAdjust="spacing" textLength="187.5166" x="578.1738" y="467.6514">actedUpon [0..1] : boolean</text><text fill="#000000" font-family="Verdana" font-size="14" lengthAdjust="spacing" textLength="219.5088" x="578.1738" y="483.9482">judgementOnly [0..1] : boolean</text></g><!--class cat_harness_scenarios_Actor--><g id="elem_cat_harness_scenarios_Actor"><rect codeLine="28" fill="#E8F0EE" height="129.75" id="cat_harness_scenarios_Actor" rx="2.5" ry="2.5" style="stroke:#000000;stroke-width:1.0;" width="317.6484" x="32" y="263.7188"/><ellipse cx="109.8115" cy="283.8516" fill="#FFFFFF" rx="9" ry="9" style="stroke:#000000;stroke-width:1.0;"/><path d="M112.7803,289.4922 Q112.2021,289.7891 111.5615,289.9297 Q110.9209,290.0859 110.2178,290.0859 Q107.7178,290.0859 106.3896,288.4453 Q105.0771,286.7891 105.0771,283.6641 Q105.0771,280.5391 106.3896,278.8828 Q107.7178,277.2266 110.2178,277.2266 Q110.9209,277.2266 111.5615,277.3828 Q112.2178,277.5391 112.7803,277.8359 L112.7803,280.5547 Q112.1553,279.9766 111.5615,279.7109 Q110.9678,279.4297 110.3428,279.4297 Q108.999,279.4297 108.3115,280.5078 Q107.624,281.5703 107.624,283.6641 Q107.624,285.7578 108.3115,286.8359 Q108.999,287.8984 110.3428,287.8984 Q110.9678,287.8984 111.5615,287.6328 Q112.1553,287.3516 112.7803,286.7734 L112.7803,289.4922 Z " fill="#000000"/><text fill="#000000" font-family="Verdana" font-size="12" font-style="italic" lengthAdjust="spacing" textLength="158.5254" x="125.3115" y="279.8574">&#171;json: RoleGraphSchema&#187;</text><text fill="#000000" font-family="Verdana" font-size="14" lengthAdjust="spacing" textLength="37.085" x="186.0317" y="295.6826">Actor</text><line style="stroke:#000000;stroke-width:1.0;" x1="33" x2="348.6484" y1="303.9844" y2="303.9844"/><text fill="#000000" font-family="Verdana" font-size="14" lengthAdjust="spacing" textLength="90.8633" x="38" y="320.9795">id [1] : string</text><text fill="#000000" font-family="Verdana" font-size="14" lengthAdjust="spacing" textLength="105.458" x="38" y="337.2764">title [1] : string</text><text fill="#000000" font-family="Verdana" font-size="14" lengthAdjust="spacing" textLength="305.6484" x="38" y="353.5732">kind [1] : person | agent | system | external</text><text fill="#000000" font-family="Verdana" font-size="14" lengthAdjust="spacing" textLength="173.7354" x="38" y="369.8701">description [0..1] : string</text><text fill="#000000" font-family="Verdana" font-size="14" lengthAdjust="spacing" textLength="139.0293" x="38" y="386.167">roles [0..*] : string[]</text></g><!--class cat_harness_scenarios_Extension--><g id="elem_cat_harness_scenarios_Extension"><rect codeLine="35" fill="#E8F0EE" height="80.8594" id="cat_harness_scenarios_Extension" rx="2.5" ry="2.5" style="stroke:#000000;stroke-width:1.0;" width="182.5254" x="369.6484" y="263.7188"/><ellipse cx="382.6484" cy="283.8516" fill="#FFFFFF" rx="9" ry="9" style="stroke:#000000;stroke-width:1.0;"/><path d="M385.6172,289.4922 Q385.0391,289.7891 384.3984,289.9297 Q383.7578,290.0859 383.0547,290.0859 Q380.5547,290.0859 379.2266,288.4453 Q377.9141,286.7891 377.9141,283.6641 Q377.9141,280.5391 379.2266,278.8828 Q380.5547,277.2266 383.0547,277.2266 Q383.7578,277.2266 384.3984,277.3828 Q385.0547,277.5391 385.6172,277.8359 L385.6172,280.5547 Q384.9922,279.9766 384.3984,279.7109 Q383.8047,279.4297 383.1797,279.4297 Q381.8359,279.4297 381.1484,280.5078 Q380.4609,281.5703 380.4609,283.6641 Q380.4609,285.7578 381.1484,286.8359 Q381.8359,287.8984 383.1797,287.8984 Q383.8047,287.8984 384.3984,287.6328 Q384.9922,287.3516 385.6172,286.7734 L385.6172,289.4922 Z " fill="#000000"/><text fill="#000000" font-family="Verdana" font-size="12" font-style="italic" lengthAdjust="spacing" textLength="158.5254" x="392.6484" y="279.8574">&#171;json: RoleGraphSchema&#187;</text><text fill="#000000" font-family="Verdana" font-size="14" lengthAdjust="spacing" textLength="68.7285" x="437.5469" y="295.6826">Extension</text><line style="stroke:#000000;stroke-width:1.0;" x1="370.6484" x2="551.1738" y1="303.9844" y2="303.9844"/><text fill="#000000" font-family="Verdana" font-size="14" lengthAdjust="spacing" textLength="104.9111" x="375.6484" y="320.9795">role [1] : string</text><text fill="#000000" font-family="Verdana" font-size="14" lengthAdjust="spacing" textLength="139.2754" x="375.6484" y="337.2764">skills [1..*] : string[]</text></g><!--class cat_harness_scenarios_RoleGraph--><g id="elem_cat_harness_scenarios_RoleGraph"><rect codeLine="39" fill="#E8F0EE" height="113.4531" id="cat_harness_scenarios_RoleGraph" rx="2.5" ry="2.5" style="stroke:#000000;stroke-width:1.0;" width="221.2412" x="135.5139" y="64"/><ellipse cx="165.936" cy="84.1328" fill="#FFFFFF" rx="9" ry="9" style="stroke:#000000;stroke-width:1.0;"/><path d="M168.9048,89.7734 Q168.3267,90.0703 167.686,90.2109 Q167.0454,90.3672 166.3423,90.3672 Q163.8423,90.3672 162.5142,88.7266 Q161.2017,87.0703 161.2017,83.9453 Q161.2017,80.8203 162.5142,79.1641 Q163.8423,77.5078 166.3423,77.5078 Q167.0454,77.5078 167.686,77.6641 Q168.3423,77.8203 168.9048,78.1172 L168.9048,80.8359 Q168.2798,80.2578 167.686,79.9922 Q167.0923,79.7109 166.4673,79.7109 Q165.1235,79.7109 164.436,80.7891 Q163.7485,81.8516 163.7485,83.9453 Q163.7485,86.0391 164.436,87.1172 Q165.1235,88.1797 166.4673,88.1797 Q167.0923,88.1797 167.686,87.9141 Q168.2798,87.6328 168.9048,87.0547 L168.9048,89.7734 Z " fill="#000000"/><text fill="#000000" font-family="Verdana" font-size="12" font-style="italic" lengthAdjust="spacing" textLength="158.5254" x="179.8076" y="80.1387">&#171;json: RoleGraphSchema&#187;</text><text fill="#000000" font-family="Verdana" font-size="14" lengthAdjust="spacing" textLength="73.7393" x="222.2007" y="95.9639">RoleGraph</text><line style="stroke:#000000;stroke-width:1.0;" x1="136.5139" x2="355.7551" y1="104.2656" y2="104.2656"/><text fill="#000000" font-family="Verdana" font-size="14" lengthAdjust="spacing" textLength="117.79" x="141.5139" y="121.2607">name [1] : string</text><text fill="#000000" font-family="Verdana" font-size="14" lengthAdjust="spacing" textLength="129.6367" x="141.5139" y="137.5576">roles [0..*] : Role[]</text><text fill="#000000" font-family="Verdana" font-size="14" lengthAdjust="spacing" textLength="145.1885" x="141.5139" y="153.8545">actors [0..*] : Actor[]</text><text fill="#000000" font-family="Verdana" font-size="14" lengthAdjust="spacing" textLength="209.2412" x="141.5139" y="170.1514">extensions [0..*] : Extension[]</text></g><line style="stroke:#000000;stroke-width:1.0;" x1="783.187" x2="783.187" y1="491.25" y2="567.5156"/><polygon fill="#000000" points="783.187,491.25,779.187,497.25,783.187,503.25,787.187,497.25,783.187,491.25" style="stroke:#000000;stroke-width:1.0;"/><text fill="#000000" font-family="Verdana" font-size="13" lengthAdjust="spacing" textLength="89.0068" x="690.1802" y="525.3169">formerNames</text><text fill="#000000" font-family="Verdana" font-size="13" lengthAdjust="spacing" textLength="23.0356" x="786.187" y="562.4497">0..*</text><line style="stroke:#000000;stroke-width:1.0;" x1="301.4448" x2="301.4448" y1="177.4531" y2="187.4531"/><line style="stroke:#000000;stroke-width:1.0;" x1="301.4448" x2="783.187" y1="187.4531" y2="187.4531"/><line style="stroke:#000000;stroke-width:1.0;" x1="783.187" x2="783.187" y1="187.4531" y2="263.7188"/><polygon fill="#000000" points="301.4448,177.4531,297.4448,183.4531,301.4448,189.4531,305.4448,183.4531,301.4448,177.4531" style="stroke:#000000;stroke-width:1.0;"/><text fill="#000000" font-family="Verdana" font-size="13" lengthAdjust="spacing" textLength="31.6812" x="747.5059" y="221.52">roles</text><text fill="#000000" font-family="Verdana" font-size="13" lengthAdjust="spacing" textLength="23.0356" x="786.187" y="258.6528">0..*</text><line style="stroke:#000000;stroke-width:1.0;" x1="190.8242" x2="190.8242" y1="177.4531" y2="263.7188"/><polygon fill="#000000" points="190.8242,177.4531,186.8242,183.4531,190.8242,189.4531,194.8242,183.4531,190.8242,177.4531" style="stroke:#000000;stroke-width:1.0;"/><text fill="#000000" font-family="Verdana" font-size="13" lengthAdjust="spacing" textLength="40.2822" x="146.542" y="221.52">actors</text><text fill="#000000" font-family="Verdana" font-size="13" lengthAdjust="spacing" textLength="23.0356" x="193.8242" y="258.6528">0..*</text><line style="stroke:#000000;stroke-width:1.0;" x1="246.1345" x2="246.1345" y1="177.4531" y2="197.4531"/><line style="stroke:#000000;stroke-width:1.0;" x1="246.1345" x2="460.9111" y1="197.4531" y2="197.4531"/><line style="stroke:#000000;stroke-width:1.0;" x1="460.9111" x2="460.9111" y1="197.4531" y2="263.7188"/><polygon fill="#000000" points="246.1345,177.4531,242.1345,183.4531,246.1345,189.4531,250.1345,183.4531,246.1345,177.4531" style="stroke:#000000;stroke-width:1.0;"/><text fill="#000000" font-family="Verdana" font-size="13" lengthAdjust="spacing" textLength="70.3765" x="386.5347" y="221.52">extensions</text><text fill="#000000" font-family="Verdana" font-size="13" lengthAdjust="spacing" textLength="23.0356" x="463.9111" y="258.6528">0..*</text><!--SRC=[fLJ1Yjim4BtxAsRTMo1fzbPC2EoXBQNGXOQUmX9cxOcjZIm9QKARjlllbHN7zcwyTafE5dxFJs_UpFZ6MCnB18a7lMSWkOjkkA2Im4WKAd8xeGnQB26LwDmTinMFUwOlgLOhyPjWtg6u0ZFzKwWSjYWTTH23wGvpMl514bXA6LKkAIf4Ha2buGEKn8NEN1JLL8XJv6c1Lf5pxrrA2gtGBWPqO7RvngER6jqqA2mMpNcvX3yH76r3_4dRakmtB2aez7wzQKbUwCbfbS1tBUcpHLEiKfyAUj5tz64x9mhY0AeYhsyV807der5vU6k9XQNiNhs6dbj7bVA0bmg-s8KXwta8w_bizjgBoCxziM3POpiZbrfXM6Xr3cBAsduLAdCUcyqc5Io5uyNnSlWBlckA_TCT75Ff3_IBoIgKoo2W_Lo5S5tmEMdrrm-1i6tYxp3QdjGiFrHIlYKXbBz3y5kmhu6o7wOgxvJKe_RPeWhmqpxB_UWhlbVoq4VfjE-kYcEWVm6_k87_qII_KoVoUFBdRUsP4ElDzIVMgVUZLrJEImpKt70khhkw-hp4Kujl1nqrsYDR53ZNBlJBY2gHTgIqxK2XxpL6fpmwU9DHNSvp50ty02RJASJLf_7uBolfBb0qbiUeShW_ELP-lTfn7P8whklrsb5BEZ7_0m00]--></g></svg>