<svg xmlns="http://www.w3.org/2000/svg" xmlns:xlink="http://www.w3.org/1999/xlink" contentStyleType="text/css" height="198px" preserveAspectRatio="none" style="width:271px;height:198px;background:#FFFFFF;" version="1.1" viewBox="0 0 271 198" width="271px" zoomAndPan="magnify"><!-- GENERATED from cat-harness/uml/overview/folio-assistant/boards.puml by cat-harness/scripts/gen-uml-overview.ts (PlantUML 1.2024.7) --><!-- puml-sha256: 468fb78fca8388008747d96744f6094f5a7b506b53b4ad5d6e5aad76e54b10ec --><defs/><g><rect fill="#FFFFFF" height="175.4531" rx="2.5" ry="2.5" style="stroke:#000000;stroke-width:1.0;" width="248.6709" x="17" y="17"/><text fill="#000000" font-family="Verdana" font-size="14" font-style="italic" lengthAdjust="spacing" textLength="65.0986" x="108.7861" y="31.9951">&#171;boards&#187;</text><text fill="#000000" font-family="Verdana" font-size="14" font-weight="bold" lengthAdjust="spacing" textLength="172.2383" x="55.2163" y="48.292">folio-assistant/boards</text><!--class folio_assistant_boards_Board--><g id="elem_folio_assistant_boards_Board"><rect codeLine="11" fill="#F6EEDF" height="113.4531" id="folio_assistant_boards_Board" rx="2.5" ry="2.5" style="stroke:#000000;stroke-width:1.0;" width="218.6709" x="32" y="64"/><ellipse cx="74.186" cy="84.1328" fill="#FFFFFF" rx="9" ry="9" style="stroke:#000000;stroke-width:1.0;"/><path d="M77.1548,89.7734 Q76.5767,90.0703 75.936,90.2109 Q75.2954,90.3672 74.5923,90.3672 Q72.0923,90.3672 70.7642,88.7266 Q69.4517,87.0703 69.4517,83.9453 Q69.4517,80.8203 70.7642,79.1641 Q72.0923,77.5078 74.5923,77.5078 Q75.2954,77.5078 75.936,77.6641 Q76.5923,77.8203 77.1548,78.1172 L77.1548,80.8359 Q76.5298,80.2578 75.936,79.9922 Q75.3423,79.7109 74.7173,79.7109 Q73.3735,79.7109 72.686,80.7891 Q71.9985,81.8516 71.9985,83.9453 Q71.9985,86.0391 72.686,87.1172 Q73.3735,88.1797 74.7173,88.1797 Q75.3423,88.1797 75.936,87.9141 Q76.5298,87.6328 77.1548,87.0547 L77.1548,89.7734 Z " fill="#000000"/><text fill="#000000" font-family="Verdana" font-size="12" font-style="italic" lengthAdjust="spacing" textLength="130.7988" x="89.686" y="80.1387">&#171;json: BoardSchema&#187;</text><text fill="#000000" font-family="Verdana" font-size="14" lengthAdjust="spacing" textLength="41.3916" x="134.3896" y="95.9639">Board</text><line style="stroke:#000000;stroke-width:1.0;" x1="33" x2="249.6709" y1="104.2656" y2="104.2656"/><text fill="#000000" font-family="Verdana" font-size="14" lengthAdjust="spacing" textLength="206.6709" x="38" y="121.2607">$schema [1] : 'folio-board/v1'</text><text fill="#000000" font-family="Verdana" font-size="14" lengthAdjust="spacing" textLength="90.8633" x="38" y="137.5576">id [1] : string</text><text fill="#000000" font-family="Verdana" font-size="14" lengthAdjust="spacing" textLength="105.458" x="38" y="153.8545">title [1] : string</text><text fill="#000000" font-family="Verdana" font-size="14" lengthAdjust="spacing" textLength="131.4141" x="38" y="170.1514">filter [0..1] : object</text></g><!--SRC=[RP3DJiCm48JlVefjGEg9_bmuL5MbSkESOuMYJRn9t3YsvTs20kgxOvmALOARFT_CUZsB4B4R4InE_Y90Tb0BwMaa21QDKpmO5p3Y28r5vgD8DFL5wBNnhZIV19ix2_Ue_OTn7RHecUv8m6R0ZagPB46aHj1rbbHlD06DGIOOINglMQcR5OhMM-EVqgE6artMjSUekG1a24DNPLpzuch6iD_FXyC1lXJCMqFnygFbwF-nAXjI-CpUxI3VoYRrW6dEG_jCfDiy3-2HimwdxHliO3blcQUitxVBR37wHZcrvRgiYP7qzJzoQwnGXDDcjSh8r-VKJa9NTLNV]--></g></svg>